<svg version="1.1" xmlns="http://www.w3.org/2000/svg" xmlns:xlink="http://www.w3.org/1999/xlink" width="512.000000pt" height="512.000000pt" viewBox="0,0,256,256"><g fill="#f9f8f8" fill-rule="nonzero" stroke="none" stroke-width="1" stroke-linecap="butt" stroke-linejoin="miter" stroke-miterlimit="10" stroke-dasharray="" stroke-dashoffset="0" font-family="none" font-weight="none" font-size="none" text-anchor="none" style="mix-blend-mode: normal"><g transform="translate(-0.14295,0.12285) scale(0.5,0.5)"><g transform="translate(0,512) scale(0.1,-0.1)"><path d="M1187,4700c-155,-26 -286,-159 -317,-320c-6,-32 -10,-350 -10,-831v-779h200h200v770v770h1595h1595v-1015v-1015h-1040h-1039l-15,-52c-9,-29 -58,-206 -111,-393c-53,-187 -98,-348 -101,-357c-5,-17 65,-18 1370,-18c1356,0 1376,0 1429,20c63,24 118,73 149,133c23,45 37,184 24,249c-4,22 -44,79 -117,168c-60,74 -120,153 -132,175l-22,40l-5,1080c-5,1179 -1,1099 -65,1200c-60,95 -155,156 -272,175c-71,12 -3246,11 -3316,0zM3280,1855c0,-43 -27,-94 -62,-115c-31,-19 -50,-20 -368,-20c-310,0 -337,1 -366,19c-34,21 -64,75 -64,115v26h430h430z"></path><path d="M2078,2804c-37,-19 -48,-45 -93,-206l-38,-137l-36,17c-33,15 -109,17 -850,20c-568,2 -831,-1 -868,-8c-65,-14 -130,-61 -161,-117c-45,-82 -44,-90 78,-583c61,-250 119,-471 127,-492c19,-47 93,-114 142,-128c22,-6 286,-10 701,-10c613,0 668,-1 700,-18c64,-32 71,-121 12,-160c-24,-15 -84,-17 -622,-22c-653,-5 -610,-1 -697,-66c-46,-35 -93,-135 -93,-199c0,-289 385,-387 518,-131c22,43 26,64 26,134v82h151h150v-83c0,-68 4,-90 25,-130c87,-172 324,-203 450,-60c52,60 74,128 67,208l-6,63l42,11c134,34 232,174 213,307c-13,94 -92,198 -172,224c-19,7 -34,16 -34,22c0,9 183,659 328,1168l39,135l171,5c161,5 173,6 194,27c33,33 30,89 -6,119c-27,24 -31,24 -229,24c-159,-1 -208,-4 -229,-16zM404,2243c8,-38 18,-85 21,-105l7,-38h-105h-105l-16,65c-21,84 -21,121 2,134c9,6 54,11 99,11h81zM930,2205v-105h-153h-154l-17,83c-10,45 -20,92 -23,105l-5,22h176h176zM1435,2208l-21,-103l-152,-3l-152,-3v106v105h174h173zM1854,2294c21,-20 20,-43 -4,-125l-21,-69h-115c-89,0 -115,3 -111,13c2,6 13,54 23,105l18,92h97c75,0 101,-4 113,-16zM493,1826c26,-126 32,-117 -79,-114l-97,3l-23,95c-13,52 -23,96 -24,98c0,1 46,2 103,2h102zM930,1810v-100h-110c-79,0 -112,4 -115,13c-3,6 -14,51 -24,100l-19,87h134h134zM1366,1893c-3,-10 -13,-55 -22,-101l-18,-83l-105,3l-106,3l-3,98l-3,97h131c120,0 131,-1 126,-17zM1750,1813l-27,-98l-101,-3c-61,-2 -102,1 -102,7c0,12 28,149 36,174c5,15 19,17 113,17h108zM572,1450c26,-118 30,-110 -60,-110c-94,0 -103,7 -126,96c-26,100 -30,95 77,92l92,-3zM930,1435v-95h-74h-73l-17,83c-9,45 -16,88 -16,95c0,9 25,12 90,12h90zM1279,1508c0,-13 -8,-54 -17,-93l-17,-70l-68,-3l-67,-3v96v95h85c82,0 85,-1 84,-22zM1667,1517c-3,-7 -13,-42 -22,-78c-26,-94 -33,-99 -130,-99h-82l21,95l21,95h98c77,0 98,-3 94,-13zM718,743c51,-56 12,-143 -66,-143c-97,0 -118,134 -27,170c30,12 67,1 93,-27zM1560,744c54,-53 15,-144 -62,-144c-76,0 -115,83 -68,143c34,42 86,43 130,1z"></path></g></g></g></svg>